<svg width="137" height="161" viewBox="0 0 137 161" fill="none" xmlns="http://www.w3.org/2000/svg">
<g opacity="0.1">
<circle cx="2.27338" cy="59.1079" r="2.27338" fill="black"/>
<circle cx="2.27338" cy="115.942" r="2.27338" fill="black"/>
<circle cx="2.27338" cy="2.27338" r="2.27338" fill="black"/>
<circle cx="2.27338" cy="87.5252" r="2.27338" fill="black"/>
<circle cx="2.27338" cy="144.36" r="2.27338" fill="black"/>
<circle cx="2.27338" cy="30.6906" r="2.27338" fill="black"/>
<circle cx="2.27338" cy="73.3166" r="2.27338" fill="black"/>
<circle cx="2.27338" cy="130.151" r="2.27338" fill="black"/>
<circle cx="2.27338" cy="16.482" r="2.27338" fill="black"/>
<circle cx="2.27338" cy="101.734" r="2.27338" fill="black"/>
<circle cx="2.27338" cy="158.568" r="2.27338" fill="black"/>
<circle cx="2.27338" cy="44.8992" r="2.27338" fill="black"/>
<circle cx="70.475" cy="59.1079" r="2.27338" fill="black"/>
<circle cx="70.475" cy="115.942" r="2.27338" fill="black"/>
<circle cx="70.475" cy="2.27338" r="2.27338" fill="black"/>
<circle cx="70.475" cy="87.5252" r="2.27338" fill="black"/>
<circle cx="70.475" cy="144.36" r="2.27338" fill="black"/>
<circle cx="70.475" cy="30.6906" r="2.27338" fill="black"/>
<circle cx="70.475" cy="73.3166" r="2.27338" fill="black"/>
<circle cx="70.475" cy="130.151" r="2.27338" fill="black"/>
<circle cx="70.475" cy="16.482" r="2.27338" fill="black"/>
<circle cx="70.475" cy="101.734" r="2.27338" fill="black"/>
<circle cx="70.475" cy="158.568" r="2.27338" fill="black"/>
<circle cx="70.475" cy="44.8992" r="2.27338" fill="black"/>
<circle cx="36.374" cy="59.1079" r="2.27338" fill="black"/>
<circle cx="36.374" cy="115.942" r="2.27338" fill="black"/>
<circle cx="36.374" cy="2.27338" r="2.27338" fill="black"/>
<circle cx="36.374" cy="87.5252" r="2.27338" fill="black"/>
<circle cx="36.374" cy="144.36" r="2.27338" fill="black"/>
<circle cx="36.374" cy="30.6906" r="2.27338" fill="black"/>
<circle cx="36.374" cy="73.3166" r="2.27338" fill="black"/>
<circle cx="36.374" cy="130.151" r="2.27338" fill="black"/>
<circle cx="36.374" cy="16.482" r="2.27338" fill="black"/>
<circle cx="36.374" cy="101.734" r="2.27338" fill="black"/>
<circle cx="36.374" cy="158.568" r="2.27338" fill="black"/>
<circle cx="36.374" cy="44.8992" r="2.27338" fill="black"/>
<circle cx="104.576" cy="59.1079" r="2.27338" fill="black"/>
<circle cx="104.576" cy="115.942" r="2.27338" fill="black"/>
<circle cx="104.576" cy="2.27338" r="2.27338" fill="black"/>
<circle cx="104.576" cy="87.5252" r="2.27338" fill="black"/>
<circle cx="104.576" cy="144.36" r="2.27338" fill="black"/>
<circle cx="104.576" cy="30.6906" r="2.27338" fill="black"/>
<circle cx="104.576" cy="73.3166" r="2.27338" fill="black"/>
<circle cx="104.576" cy="130.151" r="2.27338" fill="black"/>
<circle cx="104.576" cy="16.482" r="2.27338" fill="black"/>
<circle cx="104.576" cy="101.734" r="2.27338" fill="black"/>
<circle cx="104.576" cy="158.568" r="2.27338" fill="black"/>
<circle cx="104.576" cy="44.8992" r="2.27338" fill="black"/>
<circle cx="138.676" cy="59.1079" r="2.27338" fill="black"/>
<circle cx="138.676" cy="115.942" r="2.27338" fill="black"/>
<circle cx="138.676" cy="2.27338" r="2.27338" fill="black"/>
<circle cx="138.676" cy="87.5252" r="2.27338" fill="black"/>
<circle cx="138.676" cy="144.36" r="2.27338" fill="black"/>
<circle cx="138.676" cy="30.6906" r="2.27338" fill="black"/>
<circle cx="138.676" cy="73.3166" r="2.27338" fill="black"/>
<circle cx="138.676" cy="130.151" r="2.27338" fill="black"/>
<circle cx="138.676" cy="16.482" r="2.27338" fill="black"/>
<circle cx="138.676" cy="101.734" r="2.27338" fill="black"/>
<circle cx="138.676" cy="158.568" r="2.27338" fill="black"/>
<circle cx="138.676" cy="44.8992" r="2.27338" fill="black"/>
<circle cx="19.3237" cy="59.1079" r="2.27338" fill="black"/>
<circle cx="19.3237" cy="115.942" r="2.27338" fill="black"/>
<circle cx="19.3237" cy="2.27338" r="2.27338" fill="black"/>
<circle cx="19.3237" cy="87.5252" r="2.27338" fill="black"/>
<circle cx="19.3237" cy="144.36" r="2.27338" fill="black"/>
<circle cx="19.3237" cy="30.6906" r="2.27338" fill="black"/>
<circle cx="19.3237" cy="73.3166" r="2.27338" fill="black"/>
<circle cx="19.3237" cy="130.151" r="2.27338" fill="black"/>
<circle cx="19.3237" cy="16.482" r="2.27338" fill="black"/>
<circle cx="19.3237" cy="101.734" r="2.27338" fill="black"/>
<circle cx="19.3237" cy="158.568" r="2.27338" fill="black"/>
<circle cx="19.3237" cy="44.8992" r="2.27338" fill="black"/>
<circle cx="87.5253" cy="59.1079" r="2.27338" fill="black"/>
<circle cx="87.5253" cy="115.942" r="2.27338" fill="black"/>
<circle cx="87.5253" cy="2.27338" r="2.27338" fill="black"/>
<circle cx="87.5253" cy="87.5252" r="2.27338" fill="black"/>
<circle cx="87.5253" cy="144.36" r="2.27338" fill="black"/>
<circle cx="87.5253" cy="30.6906" r="2.27338" fill="black"/>
<circle cx="87.5253" cy="73.3166" r="2.27338" fill="black"/>
<circle cx="87.5253" cy="130.151" r="2.27338" fill="black"/>
<circle cx="87.5253" cy="16.482" r="2.27338" fill="black"/>
<circle cx="87.5253" cy="101.734" r="2.27338" fill="black"/>
<circle cx="87.5253" cy="158.568" r="2.27338" fill="black"/>
<circle cx="87.5253" cy="44.8992" r="2.27338" fill="black"/>
<circle cx="53.4243" cy="59.1079" r="2.27338" fill="black"/>
<circle cx="53.4243" cy="115.942" r="2.27338" fill="black"/>
<circle cx="53.4243" cy="2.27338" r="2.27338" fill="black"/>
<circle cx="53.4243" cy="87.5252" r="2.27338" fill="black"/>
<circle cx="53.4243" cy="144.36" r="2.27338" fill="black"/>
<circle cx="53.4243" cy="30.6906" r="2.27338" fill="black"/>
<circle cx="53.4243" cy="73.3166" r="2.27338" fill="black"/>
<circle cx="53.4243" cy="130.151" r="2.27338" fill="black"/>
<circle cx="53.4243" cy="16.482" r="2.27338" fill="black"/>
<circle cx="53.4243" cy="101.734" r="2.27338" fill="black"/>
<circle cx="53.4243" cy="158.568" r="2.27338" fill="black"/>
<circle cx="53.4243" cy="44.8992" r="2.27338" fill="black"/>
<circle cx="121.626" cy="59.1079" r="2.27338" fill="black"/>
<circle cx="121.626" cy="115.942" r="2.27338" fill="black"/>
<circle cx="121.626" cy="2.27338" r="2.27338" fill="black"/>
<circle cx="121.626" cy="87.5252" r="2.27338" fill="black"/>
<circle cx="121.626" cy="144.36" r="2.27338" fill="black"/>
<circle cx="121.626" cy="30.6906" r="2.27338" fill="black"/>
<circle cx="121.626" cy="73.3166" r="2.27338" fill="black"/>
<circle cx="121.626" cy="130.151" r="2.27338" fill="black"/>
<circle cx="121.626" cy="16.482" r="2.27338" fill="black"/>
<circle cx="121.626" cy="101.734" r="2.27338" fill="black"/>
<circle cx="121.626" cy="158.568" r="2.27338" fill="black"/>
<circle cx="121.626" cy="44.8992" r="2.27338" fill="black"/>
</g>
</svg>
