<svg width="278" height="283" viewBox="0 0 278 283" fill="none" xmlns="http://www.w3.org/2000/svg">
<g opacity="0.1">
<circle cx="4" cy="104" r="4" fill="black"/>
<circle cx="4" cy="204" r="4" fill="black"/>
<circle cx="4" cy="4" r="4" fill="black"/>
<circle cx="4" cy="154" r="4" fill="black"/>
<circle cx="4" cy="254" r="4" fill="black"/>
<circle cx="4" cy="54" r="4" fill="black"/>
<circle cx="4" cy="129" r="4" fill="black"/>
<circle cx="4" cy="229" r="4" fill="black"/>
<circle cx="4" cy="29" r="4" fill="black"/>
<circle cx="4" cy="179" r="4" fill="black"/>
<circle cx="4" cy="279" r="4" fill="black"/>
<circle cx="4" cy="79" r="4" fill="black"/>
<circle cx="124" cy="104" r="4" fill="black"/>
<circle cx="124" cy="204" r="4" fill="black"/>
<circle cx="124" cy="4" r="4" fill="black"/>
<circle cx="124" cy="154" r="4" fill="black"/>
<circle cx="124" cy="254" r="4" fill="black"/>
<circle cx="124" cy="54" r="4" fill="black"/>
<circle cx="124" cy="129" r="4" fill="black"/>
<circle cx="124" cy="229" r="4" fill="black"/>
<circle cx="124" cy="29" r="4" fill="black"/>
<circle cx="124" cy="179" r="4" fill="black"/>
<circle cx="124" cy="279" r="4" fill="black"/>
<circle cx="124" cy="79" r="4" fill="black"/>
<circle cx="64" cy="104" r="4" fill="black"/>
<circle cx="64" cy="204" r="4" fill="black"/>
<circle cx="64" cy="4" r="4" fill="black"/>
<circle cx="64" cy="154" r="4" fill="black"/>
<circle cx="64" cy="254" r="4" fill="black"/>
<circle cx="64" cy="54" r="4" fill="black"/>
<circle cx="64" cy="129" r="4" fill="black"/>
<circle cx="64" cy="229" r="4" fill="black"/>
<circle cx="64" cy="29" r="4" fill="black"/>
<circle cx="64" cy="179" r="4" fill="black"/>
<circle cx="64" cy="279" r="4" fill="black"/>
<circle cx="64" cy="79" r="4" fill="black"/>
<circle cx="184" cy="104" r="4" fill="black"/>
<circle cx="184" cy="204" r="4" fill="black"/>
<circle cx="184" cy="4" r="4" fill="black"/>
<circle cx="184" cy="154" r="4" fill="black"/>
<circle cx="184" cy="254" r="4" fill="black"/>
<circle cx="184" cy="54" r="4" fill="black"/>
<circle cx="184" cy="129" r="4" fill="black"/>
<circle cx="184" cy="229" r="4" fill="black"/>
<circle cx="184" cy="29" r="4" fill="black"/>
<circle cx="184" cy="179" r="4" fill="black"/>
<circle cx="184" cy="279" r="4" fill="black"/>
<circle cx="184" cy="79" r="4" fill="black"/>
<circle cx="244" cy="104" r="4" fill="black"/>
<circle cx="244" cy="204" r="4" fill="black"/>
<circle cx="244" cy="4" r="4" fill="black"/>
<circle cx="244" cy="154" r="4" fill="black"/>
<circle cx="244" cy="254" r="4" fill="black"/>
<circle cx="244" cy="54" r="4" fill="black"/>
<circle cx="244" cy="129" r="4" fill="black"/>
<circle cx="244" cy="229" r="4" fill="black"/>
<circle cx="244" cy="29" r="4" fill="black"/>
<circle cx="244" cy="179" r="4" fill="black"/>
<circle cx="244" cy="279" r="4" fill="black"/>
<circle cx="244" cy="79" r="4" fill="black"/>
<circle cx="34" cy="104" r="4" fill="black"/>
<circle cx="34" cy="204" r="4" fill="black"/>
<circle cx="34" cy="4" r="4" fill="black"/>
<circle cx="34" cy="154" r="4" fill="black"/>
<circle cx="34" cy="254" r="4" fill="black"/>
<circle cx="34" cy="54" r="4" fill="black"/>
<circle cx="34" cy="129" r="4" fill="black"/>
<circle cx="34" cy="229" r="4" fill="black"/>
<circle cx="34" cy="29" r="4" fill="black"/>
<circle cx="34" cy="179" r="4" fill="black"/>
<circle cx="34" cy="279" r="4" fill="black"/>
<circle cx="34" cy="79" r="4" fill="black"/>
<circle cx="154" cy="104" r="4" fill="black"/>
<circle cx="154" cy="204" r="4" fill="black"/>
<circle cx="154" cy="4" r="4" fill="black"/>
<circle cx="154" cy="154" r="4" fill="black"/>
<circle cx="154" cy="254" r="4" fill="black"/>
<circle cx="154" cy="54" r="4" fill="black"/>
<circle cx="154" cy="129" r="4" fill="black"/>
<circle cx="154" cy="229" r="4" fill="black"/>
<circle cx="154" cy="29" r="4" fill="black"/>
<circle cx="154" cy="179" r="4" fill="black"/>
<circle cx="154" cy="279" r="4" fill="black"/>
<circle cx="154" cy="79" r="4" fill="black"/>
<circle cx="94" cy="104" r="4" fill="black"/>
<circle cx="94" cy="204" r="4" fill="black"/>
<circle cx="94" cy="4" r="4" fill="black"/>
<circle cx="94" cy="154" r="4" fill="black"/>
<circle cx="94" cy="254" r="4" fill="black"/>
<circle cx="94" cy="54" r="4" fill="black"/>
<circle cx="94" cy="129" r="4" fill="black"/>
<circle cx="94" cy="229" r="4" fill="black"/>
<circle cx="94" cy="29" r="4" fill="black"/>
<circle cx="94" cy="179" r="4" fill="black"/>
<circle cx="94" cy="279" r="4" fill="black"/>
<circle cx="94" cy="79" r="4" fill="black"/>
<circle cx="214" cy="104" r="4" fill="black"/>
<circle cx="214" cy="204" r="4" fill="black"/>
<circle cx="214" cy="4" r="4" fill="black"/>
<circle cx="214" cy="154" r="4" fill="black"/>
<circle cx="214" cy="254" r="4" fill="black"/>
<circle cx="214" cy="54" r="4" fill="black"/>
<circle cx="214" cy="129" r="4" fill="black"/>
<circle cx="214" cy="229" r="4" fill="black"/>
<circle cx="214" cy="29" r="4" fill="black"/>
<circle cx="214" cy="179" r="4" fill="black"/>
<circle cx="214" cy="279" r="4" fill="black"/>
<circle cx="214" cy="79" r="4" fill="black"/>
<circle cx="274" cy="104" r="4" fill="black"/>
<circle cx="274" cy="204" r="4" fill="black"/>
<circle cx="274" cy="4" r="4" fill="black"/>
<circle cx="274" cy="154" r="4" fill="black"/>
<circle cx="274" cy="254" r="4" fill="black"/>
<circle cx="274" cy="54" r="4" fill="black"/>
<circle cx="274" cy="129" r="4" fill="black"/>
<circle cx="274" cy="229" r="4" fill="black"/>
<circle cx="274" cy="29" r="4" fill="black"/>
<circle cx="274" cy="179" r="4" fill="black"/>
<circle cx="274" cy="279" r="4" fill="black"/>
<circle cx="274" cy="79" r="4" fill="black"/>
</g>
</svg>
