<svg width="225" height="49" viewBox="0 0 225 49" fill="none" xmlns="http://www.w3.org/2000/svg">
<path d="M27.1289 29V21.2891H20.3789V29H16.8047V11.7266H20.3789V18.3125H27.1289V11.7266H30.7148V29H27.1289ZM33.8438 25.5078H37.3945V29H33.8438V25.5078ZM47.25 11.7266H50.8359V29H47.25V11.7266ZM47.5195 7.00391H50.5664V9.78125H47.5195V7.00391ZM60.8789 29.3398C59.8242 29.3398 58.9766 29.1289 58.3359 28.707C57.9531 28.457 57.5391 28.0195 57.0938 27.3945V29H53.8242V11.75H57.1523V17.8906C57.5742 17.2969 58.0391 16.8438 58.5469 16.5312C59.1484 16.1406 59.9141 15.9453 60.8438 15.9453C62.5234 15.9453 63.8359 16.5508 64.7812 17.7617C65.7344 18.9727 66.2109 20.5352 66.2109 22.4492C66.2109 24.4336 65.7422 26.0781 64.8047 27.3828C63.8672 28.6875 62.5586 29.3398 60.8789 29.3398ZM62.707 22.8008C62.707 21.8945 62.5898 21.1445 62.3555 20.5508C61.9102 19.4258 61.0898 18.8633 59.8945 18.8633C58.6836 18.8633 57.8516 19.4141 57.3984 20.5156C57.1641 21.1016 57.0469 21.8594 57.0469 22.7891C57.0469 23.8828 57.2891 24.7891 57.7734 25.5078C58.2578 26.2266 58.9961 26.5859 59.9883 26.5859C60.8477 26.5859 61.5156 26.2383 61.9922 25.543C62.4688 24.8477 62.707 23.9336 62.707 22.8008ZM75.0352 19.3086C73.6914 19.3086 72.7891 19.7461 72.3281 20.6211C72.0703 21.1133 71.9414 21.8711 71.9414 22.8945V29H68.5781V16.2266H71.7656V18.4531C72.2812 17.6016 72.7305 17.0195 73.1133 16.707C73.7383 16.1836 74.5508 15.9219 75.5508 15.9219C75.6133 15.9219 75.6641 15.9258 75.7031 15.9336C75.75 15.9336 75.8477 15.9375 75.9961 15.9453V19.3672C75.7852 19.3438 75.5977 19.3281 75.4336 19.3203C75.2695 19.3125 75.1367 19.3086 75.0352 19.3086ZM78.4453 17.6094C79.3281 16.4844 80.8438 15.9219 82.9922 15.9219C84.3906 15.9219 85.6328 16.1992 86.7188 16.7539C87.8047 17.3086 88.3477 18.3555 88.3477 19.8945V25.7539C88.3477 26.1602 88.3555 26.6523 88.3711 27.2305C88.3945 27.668 88.4609 27.9648 88.5703 28.1211C88.6797 28.2773 88.8438 28.4062 89.0625 28.5078V29H85.4297C85.3281 28.7422 85.2578 28.5 85.2188 28.2734C85.1797 28.0469 85.1484 27.7891 85.125 27.5C84.6641 28 84.1328 28.4258 83.5312 28.7773C82.8125 29.1914 82 29.3984 81.0938 29.3984C79.9375 29.3984 78.9805 29.0703 78.2227 28.4141C77.4727 27.75 77.0977 26.8125 77.0977 25.6016C77.0977 24.0312 77.7031 22.8945 78.9141 22.1914C79.5781 21.8086 80.5547 21.5352 81.8438 21.3711L82.9805 21.2305C83.5977 21.1523 84.0391 21.0547 84.3047 20.9375C84.7812 20.7344 85.0195 20.418 85.0195 19.9883C85.0195 19.4648 84.8359 19.1055 84.4688 18.9102C84.1094 18.707 83.5781 18.6055 82.875 18.6055C82.0859 18.6055 81.5273 18.8008 81.1992 19.1914C80.9648 19.4805 80.8086 19.8711 80.7305 20.3633H77.5078C77.5781 19.2461 77.8906 18.3281 78.4453 17.6094ZM80.9297 26.5859C81.2422 26.8438 81.625 26.9727 82.0781 26.9727C82.7969 26.9727 83.457 26.7617 84.0586 26.3398C84.668 25.918 84.9844 25.1484 85.0078 24.0312V22.7891C84.7969 22.9219 84.582 23.0312 84.3633 23.1172C84.1523 23.1953 83.8594 23.2695 83.4844 23.3398L82.7344 23.4805C82.0312 23.6055 81.5273 23.7578 81.2227 23.9375C80.707 24.2422 80.4492 24.7148 80.4492 25.3555C80.4492 25.9258 80.6094 26.3359 80.9297 26.5859ZM102.867 21.5V29H99.457V21.2305C99.457 20.543 99.3398 19.9883 99.1055 19.5664C98.8008 18.9727 98.2227 18.6758 97.3711 18.6758C96.4883 18.6758 95.8164 18.9727 95.3555 19.5664C94.9023 20.1523 94.6758 20.9922 94.6758 22.0859V29H91.3477V11.7852H94.6758V17.8906C95.1602 17.1484 95.7188 16.6328 96.3516 16.3438C96.9922 16.0469 97.6641 15.8984 98.3672 15.8984C99.1562 15.8984 99.8711 16.0352 100.512 16.3086C101.16 16.582 101.691 17 102.105 17.5625C102.457 18.0391 102.672 18.5312 102.75 19.0391C102.828 19.5391 102.867 20.3594 102.867 21.5ZM109.43 16.2266V29H106.043V16.2266H109.43ZM109.43 11.6211V14.7031H106.043V11.6211H109.43ZM119.848 19.7422C119.566 19.125 119.016 18.8164 118.195 18.8164C117.242 18.8164 116.602 19.125 116.273 19.7422C116.094 20.0938 116.004 20.6172 116.004 21.3125V29H112.617V16.25H115.863V18.1133C116.277 17.4492 116.668 16.9766 117.035 16.6953C117.684 16.1953 118.523 15.9453 119.555 15.9453C120.531 15.9453 121.32 16.1602 121.922 16.5898C122.406 16.9883 122.773 17.5 123.023 18.125C123.461 17.375 124.004 16.8242 124.652 16.4727C125.34 16.1211 126.105 15.9453 126.949 15.9453C127.512 15.9453 128.066 16.0547 128.613 16.2734C129.16 16.4922 129.656 16.875 130.102 17.4219C130.461 17.8672 130.703 18.4141 130.828 19.0625C130.906 19.4922 130.945 20.1211 130.945 20.9492L130.922 29H127.5V20.8672C127.5 20.3828 127.422 19.9844 127.266 19.6719C126.969 19.0781 126.422 18.7812 125.625 18.7812C124.703 18.7812 124.066 19.1641 123.715 19.9297C123.535 20.3359 123.445 20.8242 123.445 21.3945V29H120.082V21.3945C120.082 20.6367 120.004 20.0859 119.848 19.7422ZM154.5 11.7266L148.723 22.5078V29H145.113V22.5078L139.137 11.7266H143.391L146.977 19.25L150.41 11.7266H154.5ZM156.34 16.2266H159.727V29H156.34V16.2266ZM163.043 11.7266H166.383V29H163.043V11.7266ZM176.824 19.7422C176.543 19.125 175.992 18.8164 175.172 18.8164C174.219 18.8164 173.578 19.125 173.25 19.7422C173.07 20.0938 172.98 20.6172 172.98 21.3125V29H169.594V16.25H172.84V18.1133C173.254 17.4492 173.645 16.9766 174.012 16.6953C174.66 16.1953 175.5 15.9453 176.531 15.9453C177.508 15.9453 178.297 16.1602 178.898 16.5898C179.383 16.9883 179.75 17.5 180 18.125C180.438 17.375 180.98 16.8242 181.629 16.4727C182.316 16.1211 183.082 15.9453 183.926 15.9453C184.488 15.9453 185.043 16.0547 185.59 16.2734C186.137 16.4922 186.633 16.875 187.078 17.4219C187.438 17.8672 187.68 18.4141 187.805 19.0625C187.883 19.4922 187.922 20.1211 187.922 20.9492L187.898 29H184.477V20.8672C184.477 20.3828 184.398 19.9844 184.242 19.6719C183.945 19.0781 183.398 18.7812 182.602 18.7812C181.68 18.7812 181.043 19.1641 180.691 19.9297C180.512 20.3359 180.422 20.8242 180.422 21.3945V29H177.059V21.3945C177.059 20.6367 176.98 20.0859 176.824 19.7422ZM191.484 17.6094C192.367 16.4844 193.883 15.9219 196.031 15.9219C197.43 15.9219 198.672 16.1992 199.758 16.7539C200.844 17.3086 201.387 18.3555 201.387 19.8945V25.7539C201.387 26.1602 201.395 26.6523 201.41 27.2305C201.434 27.668 201.5 27.9648 201.609 28.1211C201.719 28.2773 201.883 28.4062 202.102 28.5078V29H198.469C198.367 28.7422 198.297 28.5 198.258 28.2734C198.219 28.0469 198.188 27.7891 198.164 27.5C197.703 28 197.172 28.4258 196.57 28.7773C195.852 29.1914 195.039 29.3984 194.133 29.3984C192.977 29.3984 192.02 29.0703 191.262 28.4141C190.512 27.75 190.137 26.8125 190.137 25.6016C190.137 24.0312 190.742 22.8945 191.953 22.1914C192.617 21.8086 193.594 21.5352 194.883 21.3711L196.02 21.2305C196.637 21.1523 197.078 21.0547 197.344 20.9375C197.82 20.7344 198.059 20.418 198.059 19.9883C198.059 19.4648 197.875 19.1055 197.508 18.9102C197.148 18.707 196.617 18.6055 195.914 18.6055C195.125 18.6055 194.566 18.8008 194.238 19.1914C194.004 19.4805 193.848 19.8711 193.77 20.3633H190.547C190.617 19.2461 190.93 18.3281 191.484 17.6094ZM193.969 26.5859C194.281 26.8438 194.664 26.9727 195.117 26.9727C195.836 26.9727 196.496 26.7617 197.098 26.3398C197.707 25.918 198.023 25.1484 198.047 24.0312V22.7891C197.836 22.9219 197.621 23.0312 197.402 23.1172C197.191 23.1953 196.898 23.2695 196.523 23.3398L195.773 23.4805C195.07 23.6055 194.566 23.7578 194.262 23.9375C193.746 24.2422 193.488 24.7148 193.488 25.3555C193.488 25.9258 193.648 26.3359 193.969 26.5859ZM214.219 29H203.191V26.3984L209.742 18.9453H203.637V16.2266H213.996V19.0039L207.516 26.2578H214.219V29Z" fill="white"/>
<path d="M50.9707 44.2246H47.7891L47.1914 46H45.3047L48.3867 37.3633H50.4258L53.4844 46H51.5273L50.9707 44.2246ZM50.4668 42.7363L49.3887 39.3379L48.2754 42.7363H50.4668ZM57.457 40.8496C56.8906 40.8496 56.502 41.0898 56.291 41.5703C56.1816 41.8242 56.127 42.1484 56.127 42.543V46H54.4629V39.625H56.0742V40.5566C56.2891 40.2285 56.4922 39.9922 56.6836 39.8477C57.0273 39.5898 57.4629 39.4609 57.9902 39.4609C58.6504 39.4609 59.1895 39.6348 59.6074 39.9824C60.0293 40.3262 60.2402 40.8984 60.2402 41.6992V46H58.5293V42.1152C58.5293 41.7793 58.4844 41.5215 58.3945 41.3418C58.2305 41.0137 57.918 40.8496 57.457 40.8496ZM67.6465 46H65.6309L64.1016 43.2695L63.4102 43.9902V46H61.7695V37.3926H63.4102V42.0449L65.4902 39.6426H67.5586L65.3262 42.0859L67.6465 46ZM68.707 40.3047C69.1484 39.7422 69.9062 39.4609 70.9805 39.4609C71.6797 39.4609 72.3008 39.5996 72.8438 39.877C73.3867 40.1543 73.6582 40.6777 73.6582 41.4473V44.377C73.6582 44.5801 73.6621 44.8262 73.6699 45.1152C73.6816 45.334 73.7148 45.4824 73.7695 45.5605C73.8242 45.6387 73.9062 45.7031 74.0156 45.7539V46H72.1992C72.1484 45.8711 72.1133 45.75 72.0938 45.6367C72.0742 45.5234 72.0586 45.3945 72.0469 45.25C71.8164 45.5 71.5508 45.7129 71.25 45.8887C70.8906 46.0957 70.4844 46.1992 70.0312 46.1992C69.4531 46.1992 68.9746 46.0352 68.5957 45.707C68.2207 45.375 68.0332 44.9062 68.0332 44.3008C68.0332 43.5156 68.3359 42.9473 68.9414 42.5957C69.2734 42.4043 69.7617 42.2676 70.4062 42.1855L70.9746 42.1152C71.2832 42.0762 71.5039 42.0273 71.6367 41.9688C71.875 41.8672 71.9941 41.709 71.9941 41.4941C71.9941 41.2324 71.9023 41.0527 71.7188 40.9551C71.5391 40.8535 71.2734 40.8027 70.9219 40.8027C70.5273 40.8027 70.248 40.9004 70.084 41.0957C69.9668 41.2402 69.8887 41.4355 69.8496 41.6816H68.2383C68.2734 41.123 68.4297 40.6641 68.707 40.3047ZM69.9492 44.793C70.1055 44.9219 70.2969 44.9863 70.5234 44.9863C70.8828 44.9863 71.2129 44.8809 71.5137 44.6699C71.8184 44.459 71.9766 44.0742 71.9883 43.5156V42.8945C71.8828 42.9609 71.7754 43.0156 71.666 43.0586C71.5605 43.0977 71.4141 43.1348 71.2266 43.1699L70.8516 43.2402C70.5 43.3027 70.248 43.3789 70.0957 43.4688C69.8379 43.6211 69.709 43.8574 69.709 44.1777C69.709 44.4629 69.7891 44.668 69.9492 44.793ZM78.3574 41.1543C77.6855 41.1543 77.2344 41.373 77.0039 41.8105C76.875 42.0566 76.8105 42.4355 76.8105 42.9473V46H75.1289V39.6133H76.7227V40.7266C76.9805 40.3008 77.2051 40.0098 77.3965 39.8535C77.709 39.5918 78.1152 39.4609 78.6152 39.4609C78.6465 39.4609 78.6719 39.4629 78.6914 39.4668C78.7148 39.4668 78.7637 39.4688 78.8379 39.4727V41.1836C78.7324 41.1719 78.6387 41.1641 78.5566 41.1602C78.4746 41.1562 78.4082 41.1543 78.3574 41.1543ZM80.0625 40.3047C80.5039 39.7422 81.2617 39.4609 82.3359 39.4609C83.0352 39.4609 83.6562 39.5996 84.1992 39.877C84.7422 40.1543 85.0137 40.6777 85.0137 41.4473V44.377C85.0137 44.5801 85.0176 44.8262 85.0254 45.1152C85.0371 45.334 85.0703 45.4824 85.125 45.5605C85.1797 45.6387 85.2617 45.7031 85.3711 45.7539V46H83.5547C83.5039 45.8711 83.4688 45.75 83.4492 45.6367C83.4297 45.5234 83.4141 45.3945 83.4023 45.25C83.1719 45.5 82.9062 45.7129 82.6055 45.8887C82.2461 46.0957 81.8398 46.1992 81.3867 46.1992C80.8086 46.1992 80.3301 46.0352 79.9512 45.707C79.5762 45.375 79.3887 44.9062 79.3887 44.3008C79.3887 43.5156 79.6914 42.9473 80.2969 42.5957C80.6289 42.4043 81.1172 42.2676 81.7617 42.1855L82.3301 42.1152C82.6387 42.0762 82.8594 42.0273 82.9922 41.9688C83.2305 41.8672 83.3496 41.709 83.3496 41.4941C83.3496 41.2324 83.2578 41.0527 83.0742 40.9551C82.8945 40.8535 82.6289 40.8027 82.2773 40.8027C81.8828 40.8027 81.6035 40.9004 81.4395 41.0957C81.3223 41.2402 81.2441 41.4355 81.2051 41.6816H79.5938C79.6289 41.123 79.7852 40.6641 80.0625 40.3047ZM81.3047 44.793C81.4609 44.9219 81.6523 44.9863 81.8789 44.9863C82.2383 44.9863 82.5684 44.8809 82.8691 44.6699C83.1738 44.459 83.332 44.0742 83.3438 43.5156V42.8945C83.2383 42.9609 83.1309 43.0156 83.0215 43.0586C82.916 43.0977 82.7695 43.1348 82.582 43.1699L82.207 43.2402C81.8555 43.3027 81.6035 43.3789 81.4512 43.4688C81.1934 43.6211 81.0645 43.8574 81.0645 44.1777C81.0645 44.4629 81.1445 44.668 81.3047 44.793ZM97.6289 46H95.3086L92.6426 42.2266L91.7812 43.1113V46H90.0059V37.3633H91.7812V40.9199L95.1152 37.3633H97.4473L93.9082 40.9199L97.6289 46ZM103.98 44.125C103.938 44.5039 103.74 44.8887 103.389 45.2793C102.842 45.9004 102.076 46.2109 101.092 46.2109C100.279 46.2109 99.5625 45.9492 98.9414 45.4258C98.3203 44.9023 98.0098 44.0508 98.0098 42.8711C98.0098 41.7656 98.2891 40.918 98.8477 40.3281C99.4102 39.7383 100.139 39.4434 101.033 39.4434C101.564 39.4434 102.043 39.543 102.469 39.7422C102.895 39.9414 103.246 40.2559 103.523 40.6855C103.773 41.0645 103.936 41.5039 104.01 42.0039C104.053 42.2969 104.07 42.7188 104.062 43.2695H99.6914C99.7148 43.9102 99.916 44.3594 100.295 44.6172C100.525 44.7773 100.803 44.8574 101.127 44.8574C101.471 44.8574 101.75 44.7598 101.965 44.5645C102.082 44.459 102.186 44.3125 102.275 44.125H103.98ZM102.328 42.168C102.301 41.7266 102.166 41.3926 101.924 41.166C101.686 40.9355 101.389 40.8203 101.033 40.8203C100.646 40.8203 100.346 40.9414 100.131 41.1836C99.9199 41.4258 99.7871 41.7539 99.7324 42.168H102.328ZM108.199 40.8496C107.633 40.8496 107.244 41.0898 107.033 41.5703C106.924 41.8242 106.869 42.1484 106.869 42.543V46H105.205V39.625H106.816V40.5566C107.031 40.2285 107.234 39.9922 107.426 39.8477C107.77 39.5898 108.205 39.4609 108.732 39.4609C109.393 39.4609 109.932 39.6348 110.35 39.9824C110.771 40.3262 110.982 40.8984 110.982 41.6992V46H109.271V42.1152C109.271 41.7793 109.227 41.5215 109.137 41.3418C108.973 41.0137 108.66 40.8496 108.199 40.8496ZM115.453 44.8105V46.0586L114.662 46.0879C113.873 46.1152 113.334 45.9785 113.045 45.6777C112.857 45.4863 112.764 45.1914 112.764 44.793V40.8613H111.873V39.6719H112.764V37.8906H114.416V39.6719H115.453V40.8613H114.416V44.2363C114.416 44.498 114.449 44.6621 114.516 44.7285C114.582 44.791 114.785 44.8223 115.125 44.8223C115.176 44.8223 115.229 44.8223 115.283 44.8223C115.342 44.8184 115.398 44.8145 115.453 44.8105ZM127.652 46H125.332L122.666 42.2266L121.805 43.1113V46H120.029V37.3633H121.805V40.9199L125.139 37.3633H127.471L123.932 40.9199L127.652 46ZM133.863 40.4219C134.402 41.0977 134.672 41.8965 134.672 42.8184C134.672 43.7559 134.402 44.5586 133.863 45.2266C133.324 45.8906 132.506 46.2227 131.408 46.2227C130.311 46.2227 129.492 45.8906 128.953 45.2266C128.414 44.5586 128.145 43.7559 128.145 42.8184C128.145 41.8965 128.414 41.0977 128.953 40.4219C129.492 39.7461 130.311 39.4082 131.408 39.4082C132.506 39.4082 133.324 39.7461 133.863 40.4219ZM131.402 40.8203C130.914 40.8203 130.537 40.9941 130.271 41.3418C130.01 41.6855 129.879 42.1777 129.879 42.8184C129.879 43.459 130.01 43.9531 130.271 44.3008C130.537 44.6484 130.914 44.8223 131.402 44.8223C131.891 44.8223 132.266 44.6484 132.527 44.3008C132.789 43.9531 132.92 43.459 132.92 42.8184C132.92 42.1777 132.789 41.6855 132.527 41.3418C132.266 40.9941 131.891 40.8203 131.402 40.8203ZM138.879 40.8496C138.312 40.8496 137.924 41.0898 137.713 41.5703C137.604 41.8242 137.549 42.1484 137.549 42.543V46H135.885V39.625H137.496V40.5566C137.711 40.2285 137.914 39.9922 138.105 39.8477C138.449 39.5898 138.885 39.4609 139.412 39.4609C140.072 39.4609 140.611 39.6348 141.029 39.9824C141.451 40.3262 141.662 40.8984 141.662 41.6992V46H139.951V42.1152C139.951 41.7793 139.906 41.5215 139.816 41.3418C139.652 41.0137 139.34 40.8496 138.879 40.8496ZM147.609 39.9062C148.109 40.2266 148.396 40.7773 148.471 41.5586H146.801C146.777 41.3438 146.717 41.1738 146.619 41.0488C146.436 40.8223 146.123 40.709 145.682 40.709C145.318 40.709 145.059 40.7656 144.902 40.8789C144.75 40.9922 144.674 41.125 144.674 41.2773C144.674 41.4688 144.756 41.6074 144.92 41.6934C145.084 41.7832 145.664 41.9375 146.66 42.1562C147.324 42.3125 147.822 42.5488 148.154 42.8652C148.482 43.1855 148.646 43.5859 148.646 44.0664C148.646 44.6992 148.41 45.2168 147.938 45.6191C147.469 46.0176 146.742 46.2168 145.758 46.2168C144.754 46.2168 144.012 46.0059 143.531 45.584C143.055 45.1582 142.816 44.6172 142.816 43.9609H144.51C144.545 44.2578 144.621 44.4688 144.738 44.5938C144.945 44.8164 145.328 44.9277 145.887 44.9277C146.215 44.9277 146.475 44.8789 146.666 44.7812C146.861 44.6836 146.959 44.5371 146.959 44.3418C146.959 44.1543 146.881 44.0117 146.725 43.9141C146.568 43.8164 145.988 43.6484 144.984 43.4102C144.262 43.2305 143.752 43.0059 143.455 42.7363C143.158 42.4707 143.01 42.0879 143.01 41.5879C143.01 40.998 143.24 40.4922 143.701 40.0703C144.166 39.6445 144.818 39.4316 145.658 39.4316C146.455 39.4316 147.105 39.5898 147.609 39.9062ZM155.355 44.125C155.312 44.5039 155.115 44.8887 154.764 45.2793C154.217 45.9004 153.451 46.2109 152.467 46.2109C151.654 46.2109 150.938 45.9492 150.316 45.4258C149.695 44.9023 149.385 44.0508 149.385 42.8711C149.385 41.7656 149.664 40.918 150.223 40.3281C150.785 39.7383 151.514 39.4434 152.408 39.4434C152.939 39.4434 153.418 39.543 153.844 39.7422C154.27 39.9414 154.621 40.2559 154.898 40.6855C155.148 41.0645 155.311 41.5039 155.385 42.0039C155.428 42.2969 155.445 42.7188 155.438 43.2695H151.066C151.09 43.9102 151.291 44.3594 151.67 44.6172C151.9 44.7773 152.178 44.8574 152.502 44.8574C152.846 44.8574 153.125 44.7598 153.34 44.5645C153.457 44.459 153.561 44.3125 153.65 44.125H155.355ZM153.703 42.168C153.676 41.7266 153.541 41.3926 153.299 41.166C153.061 40.9355 152.764 40.8203 152.408 40.8203C152.021 40.8203 151.721 40.9414 151.506 41.1836C151.295 41.4258 151.162 41.7539 151.107 42.168H153.703ZM159.164 44.3242L160.482 39.6133H162.258L160.066 45.8945C159.645 47.1055 159.311 47.8555 159.064 48.1445C158.818 48.4375 158.326 48.584 157.588 48.584C157.439 48.584 157.32 48.582 157.23 48.5781C157.141 48.5781 157.006 48.5723 156.826 48.5605V47.2246L157.037 47.2363C157.201 47.2441 157.357 47.2383 157.506 47.2188C157.654 47.1992 157.779 47.1543 157.881 47.084C157.979 47.0176 158.068 46.8789 158.15 46.668C158.236 46.457 158.271 46.3281 158.256 46.2812L155.912 39.6133H157.77L159.164 44.3242ZM164.965 39.6133V46H163.271V39.6133H164.965ZM164.965 37.3105V38.8516H163.271V37.3105H164.965ZM174.006 46H170.092V37.3633H174.287C175.346 37.3789 176.096 37.6855 176.537 38.2832C176.803 38.6504 176.936 39.0898 176.936 39.6016C176.936 40.1289 176.803 40.5527 176.537 40.873C176.389 41.0527 176.17 41.2168 175.881 41.3652C176.322 41.5254 176.654 41.7793 176.877 42.127C177.104 42.4746 177.217 42.8965 177.217 43.3926C177.217 43.9043 177.088 44.3633 176.83 44.7695C176.666 45.0391 176.461 45.2656 176.215 45.4492C175.938 45.6602 175.609 45.8047 175.23 45.8828C174.855 45.9609 174.447 46 174.006 46ZM173.965 42.1973H171.814V44.5H173.936C174.314 44.5 174.609 44.4492 174.82 44.3477C175.203 44.1602 175.395 43.8008 175.395 43.2695C175.395 42.8203 175.209 42.5117 174.838 42.3438C174.631 42.25 174.34 42.2012 173.965 42.1973ZM174.861 40.5508C175.096 40.4102 175.213 40.1582 175.213 39.7949C175.213 39.3926 175.057 39.127 174.744 38.998C174.475 38.9082 174.131 38.8633 173.713 38.8633H171.814V40.7676H173.936C174.314 40.7676 174.623 40.6953 174.861 40.5508ZM178.84 40.3047C179.281 39.7422 180.039 39.4609 181.113 39.4609C181.812 39.4609 182.434 39.5996 182.977 39.877C183.52 40.1543 183.791 40.6777 183.791 41.4473V44.377C183.791 44.5801 183.795 44.8262 183.803 45.1152C183.814 45.334 183.848 45.4824 183.902 45.5605C183.957 45.6387 184.039 45.7031 184.148 45.7539V46H182.332C182.281 45.8711 182.246 45.75 182.227 45.6367C182.207 45.5234 182.191 45.3945 182.18 45.25C181.949 45.5 181.684 45.7129 181.383 45.8887C181.023 46.0957 180.617 46.1992 180.164 46.1992C179.586 46.1992 179.107 46.0352 178.729 45.707C178.354 45.375 178.166 44.9062 178.166 44.3008C178.166 43.5156 178.469 42.9473 179.074 42.5957C179.406 42.4043 179.895 42.2676 180.539 42.1855L181.107 42.1152C181.416 42.0762 181.637 42.0273 181.77 41.9688C182.008 41.8672 182.127 41.709 182.127 41.4941C182.127 41.2324 182.035 41.0527 181.852 40.9551C181.672 40.8535 181.406 40.8027 181.055 40.8027C180.66 40.8027 180.381 40.9004 180.217 41.0957C180.1 41.2402 180.021 41.4355 179.982 41.6816H178.371C178.406 41.123 178.562 40.6641 178.84 40.3047ZM180.082 44.793C180.238 44.9219 180.43 44.9863 180.656 44.9863C181.016 44.9863 181.346 44.8809 181.646 44.6699C181.951 44.459 182.109 44.0742 182.121 43.5156V42.8945C182.016 42.9609 181.908 43.0156 181.799 43.0586C181.693 43.0977 181.547 43.1348 181.359 43.1699L180.984 43.2402C180.633 43.3027 180.381 43.3789 180.229 43.4688C179.971 43.6211 179.842 43.8574 179.842 44.1777C179.842 44.4629 179.922 44.668 180.082 44.793ZM186.785 47.1016L187.354 46.2168C186.666 46.2168 186.082 46.0059 185.602 45.584C185.125 45.1582 184.887 44.6172 184.887 43.9609H186.58C186.615 44.2578 186.691 44.4688 186.809 44.5938C187.016 44.8164 187.398 44.9277 187.957 44.9277C188.285 44.9277 188.545 44.8789 188.736 44.7812C188.932 44.6836 189.029 44.5371 189.029 44.3418C189.029 44.1543 188.951 44.0117 188.795 43.9141C188.639 43.8164 188.059 43.6484 187.055 43.4102C186.332 43.2305 185.822 43.0078 185.525 42.7422C185.229 42.4727 185.08 42.0879 185.08 41.5879C185.08 40.998 185.311 40.4922 185.771 40.0703C186.236 39.6445 186.889 39.4316 187.729 39.4316C188.525 39.4316 189.174 39.5918 189.674 39.9121C190.178 40.2285 190.467 40.7773 190.541 41.5586H188.871C188.848 41.3438 188.787 41.1738 188.689 41.0488C188.506 40.8223 188.193 40.709 187.752 40.709C187.389 40.709 187.129 40.7656 186.973 40.8789C186.82 40.9922 186.744 41.125 186.744 41.2773C186.744 41.4688 186.826 41.6094 186.99 41.6992C187.154 41.7852 187.734 41.9375 188.73 42.1562C190.055 42.4727 190.717 43.1094 190.717 44.0664C190.717 44.6992 190.48 45.2168 190.008 45.6191C189.539 46.0176 188.867 46.2168 187.992 46.2168L187.617 46.7676C187.746 46.7402 187.838 46.7207 187.893 46.709C187.947 46.7012 188.006 46.6973 188.068 46.6973C188.385 46.6973 188.637 46.7734 188.824 46.9258C189.012 47.082 189.105 47.3047 189.105 47.5938C189.105 47.9531 188.959 48.2363 188.666 48.4434C188.373 48.6543 187.996 48.7598 187.535 48.7598C187.336 48.7598 187.096 48.7188 186.814 48.6367C186.686 48.5977 186.504 48.5352 186.27 48.4492L186.492 47.9453C186.715 48.0117 186.867 48.0547 186.949 48.0742C187.137 48.1211 187.289 48.1445 187.406 48.1445C187.641 48.1445 187.809 48.0938 187.91 47.9922C188.012 47.8945 188.062 47.791 188.062 47.6816C188.062 47.5176 188.006 47.4023 187.893 47.3359C187.779 47.2695 187.658 47.2363 187.529 47.2363C187.455 47.2363 187.379 47.2441 187.301 47.2598C187.223 47.2793 187.135 47.3047 187.037 47.3359L186.785 47.1016ZM197.818 46H195.803L194.273 43.2695L193.582 43.9902V46H191.941V37.3926H193.582V42.0449L195.662 39.6426H197.73L195.498 42.0859L197.818 46ZM198.879 40.3047C199.32 39.7422 200.078 39.4609 201.152 39.4609C201.852 39.4609 202.473 39.5996 203.016 39.877C203.559 40.1543 203.83 40.6777 203.83 41.4473V44.377C203.83 44.5801 203.834 44.8262 203.842 45.1152C203.854 45.334 203.887 45.4824 203.941 45.5605C203.996 45.6387 204.078 45.7031 204.188 45.7539V46H202.371C202.32 45.8711 202.285 45.75 202.266 45.6367C202.246 45.5234 202.23 45.3945 202.219 45.25C201.988 45.5 201.723 45.7129 201.422 45.8887C201.062 46.0957 200.656 46.1992 200.203 46.1992C199.625 46.1992 199.146 46.0352 198.768 45.707C198.393 45.375 198.205 44.9062 198.205 44.3008C198.205 43.5156 198.508 42.9473 199.113 42.5957C199.445 42.4043 199.934 42.2676 200.578 42.1855L201.146 42.1152C201.455 42.0762 201.676 42.0273 201.809 41.9688C202.047 41.8672 202.166 41.709 202.166 41.4941C202.166 41.2324 202.074 41.0527 201.891 40.9551C201.711 40.8535 201.445 40.8027 201.094 40.8027C200.699 40.8027 200.42 40.9004 200.256 41.0957C200.139 41.2402 200.061 41.4355 200.021 41.6816H198.41C198.445 41.123 198.602 40.6641 198.879 40.3047ZM200.121 44.793C200.277 44.9219 200.469 44.9863 200.695 44.9863C201.055 44.9863 201.385 44.8809 201.686 44.6699C201.99 44.459 202.148 44.0742 202.16 43.5156V42.8945C202.055 42.9609 201.947 43.0156 201.838 43.0586C201.732 43.0977 201.586 43.1348 201.398 43.1699L201.023 43.2402C200.672 43.3027 200.42 43.3789 200.268 43.4688C200.01 43.6211 199.881 43.8574 199.881 44.1777C199.881 44.4629 199.961 44.668 200.121 44.793ZM208.324 40.8496C207.758 40.8496 207.369 41.0898 207.158 41.5703C207.049 41.8242 206.994 42.1484 206.994 42.543V46H205.33V39.625H206.941V40.5566C207.156 40.2285 207.359 39.9922 207.551 39.8477C207.895 39.5898 208.33 39.4609 208.857 39.4609C209.518 39.4609 210.057 39.6348 210.475 39.9824C210.896 40.3262 211.107 40.8984 211.107 41.6992V46H209.396V42.1152C209.396 41.7793 209.352 41.5215 209.262 41.3418C209.098 41.0137 208.785 40.8496 208.324 40.8496ZM212.678 39.6133H214.371V46H212.678V39.6133Z" fill="white"/>
<path d="M39.5 46H3C1.89543 46 1 45.1046 1 44V3C1 1.89543 1.89543 1 3 1H222C223.105 1 224 1.89543 224 3V46" stroke="white"/>
</svg>
